<svg width="100" height="100" viewBox="0 0 100 100" fill="none" xmlns="http://www.w3.org/2000/svg">
  <path d="M50 90C72.0914 90 90 72.0914 90 50C90 27.9086 72.0914 10 50 10C27.9086 10 10 27.9086 10 50C10 72.0914 27.9086 90 50 90Z" fill="#FF7A00" fill-opacity="0.1"/>
  <path d="M50 80C66.5685 80 80 66.5685 80 50C80 33.4315 66.5685 20 50 20C33.4315 20 20 33.4315 20 50C20 66.5685 33.4315 80 50 80Z" stroke="#FF7A00" stroke-width="2"/>
  <path d="M50 70C61.0457 70 70 61.0457 70 50C70 38.9543 61.0457 30 50 30C38.9543 30 30 38.9543 30 50C30 61.0457 38.9543 70 50 70Z" fill="#FF7A00" fill-opacity="0.2"/>
  <path d="M50 60C55.5228 60 60 55.5228 60 50C60 44.4772 55.5228 40 50 40C44.4772 40 40 44.4772 40 50C40 55.5228 44.4772 60 50 60Z" fill="#FF7A00" fill-opacity="0.5"/>
  <path d="M50 50C50 50 60 40 65 40C70 40 75 45 75 50C75 55 70 60 65 60C60 60 50 50 50 50Z" fill="#FF7A00"/>
  <path d="M50 50C50 50 60 60 65 60C70 60 75 55 75 50C75 45 70 40 65 40C60 40 50 50 50 50Z" fill="#FF7A00"/>
  <path d="M50 50C50 50 40 40 35 40C30 40 25 45 25 50C25 55 30 60 35 60C40 60 50 50 50 50Z" fill="#FF7A00"/>
  <path d="M50 50C50 50 40 60 35 60C30 60 25 55 25 50C25 45 30 40 35 40C40 40 50 50 50 50Z" fill="#FF7A00"/>
  <path d="M50 50C50 50 40 40 30 25C35 35 45 45 50 50Z" fill="#FF7A00"/>
  <path d="M50 50C50 50 60 40 70 25C65 35 55 45 50 50Z" fill="#FF7A00"/>
  <path d="M50 50C50 50 60 60 70 75C65 65 55 55 50 50Z" fill="#FF7A00"/>
  <path d="M50 50C50 50 40 60 30 75C35 65 45 55 50 50Z" fill="#FF7A00"/>
</svg>
